<svg width="1000" height="1000" version="1.1" xmlns="http://www.w3.org/2000/svg" desc="Created with ImageToolbox version 3.9.0-foss" ><path desc="l 1 p 0" fill="rgb(253,253,253)" stroke="rgb(253,253,253)" stroke-width="1" opacity="1.0" d="M 0.5 0.0 L 210.5 0.0 L 262.5 0.0 L 275.5 0.0 Q 282.79998779296875 -0.800000011920929 286.0 2.5 L 290.0 5.5 L 306.0 18.5 L 307.5 21.0 L 310.0 22.5 L 322.0 41.5 L 326.0 49.5 L 330.0 59.5 L 332.0 63.5 Q 334.79998779296875 65.19999694824219 334.0 70.5 L 335.0 79.5 Q 333.0 82.5 327.5 82.0 L 323.5 83.0 L 316.5 86.0 L 307.0 90.5 L 306.5 92.0 L 302.0 94.5 L 300.5 97.0 L 298.0 98.5 L 296.5 101.0 L 295.0 101.5 L 293.0 105.5 L 289.5 111.0 L 273.5 136.0 L 272.0 136.5 L 271.5 140.0 L 269.0 141.5 L 256.5 166.0 L 247.0 188.5 L 241.5 205.0 Q 239.10000610351562 207.10000610351562 240.0 212.5 L 237.0 221.5 L 236.0 228.5 Q 237.3000030517578 236.3000030517578 232.0 237.5 L 219.5 254.0 L 218.0 254.5 L 215.5 258.0 L 213.0 259.5 L 211.5 263.0 L 208.0 265.5 L 205.5 269.0 L 193.0 280.5 L 187.5 285.0 L 184.5 286.0 Q 183.3000030517578 288.29998779296875 178.5 287.0 L 176.5 286.0 Q 174.3000030517578 286.79998779296875 175.0 290.5 Q 175.8000030517578 293.79998779296875 180.5 293.0 L 191.5 293.0 L 207.0 284.5 L 207.5 283.0 L 217.0 278.5 L 226.0 272.5 L 227.5 270.0 L 228.0 273.5 L 222.0 285.5 L 218.5 298.0 Q 216.10000610351562 300.1000061035156 217.0 305.5 L 215.0 329.5 Q 217.3000030517578 330.79998779296875 216.0 335.5 Q 215.1999969482422 342.79998779296875 218.5 346.0 Q 220.8000030517578 346.79998779296875 220.0 350.5 L 225.5 357.0 L 231.5 358.0 L 233.0 352.5 L 230.0 350.5 L 228.0 345.5 L 227.0 342.5 L 227.0 333.5 L 230.0 325.5 L 231.5 318.0 L 233.0 317.5 L 238.0 307.5 Q 237.5 303.5 240.5 303.0 L 242.0 302.5 L 242.5 299.0 L 244.0 299.5 L 241.0 319.5 L 240.0 328.5 L 240.0 349.5 L 243.0 356.5 L 244.0 362.5 L 237.5 375.0 L 236.0 375.5 Q 236.8000030517578 379.79998779296875 234.0 380.5 L 230.5 386.0 L 221.5 387.0 L 219.5 387.0 Q 215.8000030517578 386.29998779296875 215.0 388.5 L 215.5 390.0 L 220.0 391.5 L 220.5 394.0 L 228.5 396.0 Q 234.39999389648438 398.6000061035156 244.5 397.0 Q 247.10000610351562 393.6000061035156 254.5 395.0 L 255.0 397.5 L 252.0 398.5 L 250.5 402.0 L 247.0 404.5 L 246.5 406.0 L 245.0 406.5 L 245.5 410.0 L 250.5 411.0 L 254.0 409.5 L 254.5 408.0 L 262.0 403.5 L 262.5 402.0 L 265.0 401.5 L 265.5 400.0 L 269.0 397.5 L 270.5 395.0 L 274.0 395.5 L 270.0 403.5 L 266.5 412.0 L 265.0 417.5 L 271.5 418.0 L 274.5 414.0 L 277.0 412.5 Q 281.70001220703125 402.20001220703125 290.5 396.0 L 293.0 397.5 L 295.0 402.5 L 296.0 405.5 L 299.0 409.5 L 301.0 413.5 L 308.5 424.0 L 310.0 424.5 L 311.5 427.0 L 317.5 428.0 L 319.0 422.5 Q 315.20001220703125 417.79998779296875 317.0 407.5 L 318.0 407.5 L 320.0 411.5 Q 323.0 412.5 322.0 417.5 L 330.0 433.5 Q 329.20001220703125 439.29998779296875 332.5 441.0 Q 335.29998779296875 446.29998779296875 334.0 455.5 L 331.5 462.0 Q 329.29998779296875 463.79998779296875 330.0 468.5 Q 331.0 471.0 335.5 470.0 L 343.0 463.5 L 346.5 458.0 L 351.0 454.5 L 352.5 450.0 L 354.0 449.5 L 357.5 443.0 Q 360.1000061035156 441.6000061035156 359.5 437.0 L 362.0 438.5 L 368.0 448.5 L 374.5 458.0 L 376.0 458.5 L 377.5 462.0 L 384.5 463.0 Q 387.5 461.5 386.0 455.5 L 384.0 452.5 L 383.0 448.5 L 385.5 450.0 Q 389.29998779296875 449.29998779296875 390.0 451.5 L 391.5 454.0 L 395.5 456.0 Q 396.79998779296875 458.79998779296875 401.0 458.5 L 404.0 463.5 L 401.0 470.5 L 399.0 477.5 L 397.0 485.5 L 395.0 490.5 L 390.5 500.0 L 389.0 500.5 L 386.0 504.5 Q 382.3999938964844 505.8999938964844 383.0 511.5 L 387.5 513.0 L 402.0 503.5 L 402.5 501.0 Q 405.5 502.5 404.0 508.5 L 402.5 511.0 L 401.0 511.5 L 399.0 518.5 Q 394.6000061035156 522.0999755859375 394.0 529.5 Q 396.1000061035156 531.9000244140625 401.5 531.0 L 402.5 529.0 L 413.0 522.5 L 414.5 520.0 Q 416.79998779296875 520.7999877929688 416.0 524.5 L 414.0 529.5 Q 417.79998779296875 531.2999877929688 416.0 538.5 Q 411.29998779296875 541.2999877929688 411.5 549.0 Q 406.29998779296875 550.2999877929688 405.0 547.5 Q 403.5 544.5 397.5 546.0 L 391.5 550.0 L 386.0 552.5 L 381.0 556.5 L 379.5 559.0 L 378.0 559.5 L 376.5 562.0 Q 371.79998779296875 563.2999877929688 370.5 561.0 L 363.5 559.0 L 359.5 561.0 L 354.5 562.0 L 350.5 565.0 L 347.5 566.0 L 333.5 571.0 L 327.5 573.0 L 323.5 575.0 L 305.0 582.5 L 282.5 592.0 L 264.0 598.5 Q 263.29998779296875 601.7999877929688 258.5 601.0 L 253.5 602.0 L 248.5 605.0 Q 242.8000030517578 603.7999877929688 241.5 607.0 L 231.5 611.0 L 218.0 617.5 L 205.0 627.5 Q 205.8000030517578 631.2999877929688 203.5 632.0 L 201.0 633.5 Q 202.0 638.5 199.0 639.5 L 197.0 643.5 L 191.5 656.0 L 190.0 656.5 L 189.0 662.5 L 187.5 666.0 L 183.5 676.0 L 179.5 684.0 L 178.0 687.5 L 177.0 693.5 Q 174.3000030517578 694.2999877929688 175.0 698.5 L 175.0 708.5 L 173.0 725.5 L 171.0 735.5 L 170.0 759.5 L 170.0 771.5 Q 170.6999969482422 777.2000122070312 168.0 779.5 L 167.0 795.5 L 166.0 804.5 L 166.0 819.5 Q 167.5 825.0 165.0 826.5 L 164.0 831.5 L 162.0 858.5 L 160.0 879.5 L 158.5 892.0 L 158.0 910.5 L 158.0 941.5 Q 159.39999389648438 950.4000244140625 157.0 955.5 Q 154.3000030517578 956.2999877929688 155.0 960.5 L 156.0 963.5 L 155.0 967.5 L 156.0 972.5 Q 153.3000030517578 974.2999877929688 155.0 980.5 L 154.5 1000.0 L 0.0 999.5 L 0.5 0.0 Z" /><path desc="l 0 p 0" fill="rgb(2,2,2)" stroke="rgb(2,2,2)" stroke-width="1" opacity="1.0" d="M 281.5 0.0 L 295.5 0.0 Q 301.79998779296875 -0.800000011920929 304.5 2.0 L 311.0 5.5 L 319.5 11.0 L 330.0 20.5 L 330.5 22.0 L 332.0 22.5 L 334.5 26.0 L 336.0 26.5 Q 335.29998779296875 30.299999237060547 337.5 31.0 L 340.0 35.5 L 344.0 44.5 L 347.5 57.0 L 349.0 56.5 L 350.0 50.5 L 353.0 46.5 L 355.0 42.5 L 361.5 34.0 Q 366.5 34.5 367.0 30.5 L 373.5 27.0 L 381.5 23.0 L 386.5 21.0 L 399.5 17.0 Q 403.1000061035156 14.100000381469727 410.5 15.0 L 419.5 15.0 L 423.5 14.0 L 425.5 15.0 L 427.5 14.0 L 431.5 15.0 L 440.5 15.0 L 477.5 15.0 L 493.5 19.0 Q 501.5 17.0 503.5 21.0 Q 504.8999938964844 23.600000381469727 509.5 23.0 L 515.5 24.0 L 520.0 26.5 L 525.0 28.5 L 532.5 32.0 L 536.5 34.0 L 546.0 42.5 L 548.5 46.0 L 573.5 46.0 Q 584.2999877929688 47.29999923706055 589.5 43.0 L 606.5 42.0 L 616.0 41.5 L 623.5 40.0 L 630.5 39.0 L 636.0 36.5 L 639.0 30.5 L 640.5 27.0 Q 645.2999877929688 26.299999237060547 646.0 29.5 L 644.0 36.5 L 642.5 40.0 L 638.5 45.0 L 637.0 45.5 L 634.5 49.0 L 632.0 49.5 L 630.5 52.0 L 616.0 58.5 L 598.0 63.5 L 585.5 64.0 L 577.5 65.0 L 570.5 67.0 L 567.0 68.5 Q 572.2999877929688 68.30000305175781 574.5 71.0 L 584.0 74.5 L 597.0 81.5 L 615.0 91.5 L 632.0 102.5 L 633.5 105.0 L 637.0 106.5 L 641.0 109.5 L 641.5 111.0 L 647.0 114.5 L 648.5 117.0 L 652.0 119.5 L 652.5 121.0 L 655.0 121.5 L 656.5 125.0 L 659.0 125.5 L 660.5 129.0 L 663.0 130.5 L 671.0 142.5 L 675.0 150.5 L 678.0 158.5 L 679.0 166.5 L 674.5 173.0 L 668.5 175.0 Q 666.2999877929688 174.3000030517578 667.0 170.5 Q 671.0999755859375 167.60000610351562 670.0 159.5 L 666.0 151.5 L 664.0 147.5 L 656.5 137.0 L 655.0 136.5 L 654.5 135.0 L 648.0 132.5 L 647.5 131.0 L 627.5 120.0 L 619.0 116.5 Q 618.2999877929688 114.30000305175781 614.5 115.0 L 614.0 116.5 L 617.0 117.5 L 617.5 120.0 L 621.0 121.5 L 621.5 124.0 L 625.0 126.5 L 626.5 129.0 L 628.0 129.5 L 642.0 150.5 L 648.0 159.5 L 652.5 170.0 L 655.0 171.5 L 657.5 178.0 L 660.5 185.0 Q 663.5 185.5 663.0 189.5 L 664.5 197.0 L 666.0 197.5 Q 666.2999877929688 202.3000030517578 669.5 204.0 L 676.5 211.0 L 678.0 211.5 L 680.5 215.0 L 692.0 224.5 L 692.5 226.0 L 698.5 229.0 L 708.5 236.0 Q 709.2999877929688 238.8000030517578 713.5 238.0 L 721.5 238.0 L 726.5 237.0 L 728.0 240.5 L 722.0 244.5 L 718.5 246.0 L 710.5 247.0 L 703.5 244.0 L 698.5 243.0 L 692.5 242.0 Q 690.9000244140625 238.10000610351562 684.5 239.0 L 684.0 241.5 L 686.0 242.5 L 690.0 250.5 L 698.0 270.5 L 701.0 278.5 L 702.0 284.5 L 702.0 296.5 L 696.5 306.0 Q 691.2999877929688 307.29998779296875 690.0 304.5 L 691.0 300.5 Q 693.7999877929688 298.79998779296875 692.0 292.5 L 689.0 286.5 L 680.5 270.0 L 678.0 270.5 Q 679.5 280.0 677.0 285.5 L 675.0 290.5 L 672.0 296.5 Q 669.5 298.0 671.0 303.5 L 675.0 311.5 Q 673.5 317.5 676.5 319.0 L 678.5 323.0 Q 678.2999877929688 327.29998779296875 681.0 328.5 L 684.5 336.0 L 688.5 343.0 L 690.0 343.5 Q 689.5 347.5 692.5 348.0 L 696.0 348.5 L 696.5 350.0 L 698.0 350.5 L 700.0 353.5 Q 698.7999877929688 357.29998779296875 692.5 356.0 L 674.0 344.5 L 672.5 342.0 L 669.0 343.5 Q 672.5999755859375 348.8999938964844 671.0 359.5 L 667.0 370.5 Q 668.0 375.0 665.5 376.0 Q 660.0999755859375 376.8999938964844 658.0 374.5 Q 659.0 370.0 656.5 369.0 L 655.0 379.5 L 652.0 387.5 L 643.5 403.0 L 641.0 404.5 Q 640.5999755859375 411.6000061035156 636.0 414.5 L 635.0 417.5 L 632.0 421.5 L 630.0 425.5 L 626.5 431.0 L 625.0 431.5 L 624.0 435.5 L 620.5 439.0 L 607.5 462.0 L 606.0 462.5 L 603.5 467.0 L 602.0 467.5 L 598.5 473.0 L 592.0 475.5 Q 590.5 478.5 584.5 477.0 L 564.5 477.0 L 554.5 474.0 Q 551.5 475.5 553.0 481.5 L 554.0 486.5 Q 553.0 491.0 555.5 492.0 L 558.0 498.5 L 562.0 503.5 Q 565.9000244140625 505.1000061035156 565.0 511.5 L 555.5 512.0 L 551.5 509.0 Q 548.2999877929688 510.79998779296875 550.0 517.5 L 554.0 523.5 L 555.0 529.5 Q 558.7999877929688 531.2999877929688 557.0 538.5 L 552.5 539.0 L 544.5 532.0 Q 541.2999877929688 533.7999877929688 543.0 540.5 L 546.0 545.5 Q 549.5 555.0 556.5 561.0 L 559.0 562.5 L 560.5 565.0 Q 564.5 564.5 565.0 567.5 L 565.5 569.0 Q 569.5 568.5 570.0 571.5 L 570.5 573.0 L 582.5 573.0 L 589.5 574.0 L 592.5 576.0 L 596.5 577.0 Q 602.5 575.5 604.0 578.5 L 607.5 580.0 L 632.0 594.5 L 632.5 596.0 L 639.0 598.5 L 640.5 601.0 Q 644.7999877929688 600.2999877929688 645.5 603.0 L 657.5 610.0 L 666.0 616.5 L 678.0 622.5 L 678.5 624.0 L 698.5 634.0 L 719.0 645.5 L 719.5 647.0 Q 724.7000122070312 646.7999877929688 726.5 650.0 L 737.5 657.0 L 753.0 669.5 L 753.5 671.0 L 757.0 673.5 L 761.0 681.5 L 763.0 686.5 L 767.0 697.5 Q 769.5999755859375 698.9000244140625 769.0 703.5 L 770.0 708.5 L 773.0 713.5 Q 771.7999877929688 718.7999877929688 774.5 720.0 L 777.0 726.5 Q 775.5 732.5 778.5 734.0 Q 780.9000244140625 736.0999755859375 780.0 741.5 L 781.0 745.5 L 782.5 749.0 Q 785.2999877929688 750.2999877929688 784.0 755.5 Q 783.2000122070312 763.7999877929688 786.5 768.0 Q 789.9000244140625 771.5999755859375 788.0 780.5 L 789.0 784.5 Q 788.4000244140625 789.0999755859375 791.0 790.5 L 792.0 802.5 Q 790.5 808.0 793.0 809.5 L 794.0 814.5 Q 796.2999877929688 815.7999877929688 795.0 820.5 L 796.0 838.5 L 796.0 847.5 L 797.0 851.5 L 799.5 864.0 L 800.0 871.5 L 801.0 876.5 L 802.0 884.5 L 803.0 891.5 L 804.0 902.5 L 805.0 915.5 L 807.0 921.5 L 808.0 926.5 L 808.0 934.5 L 809.5 940.0 Q 812.2000122070312 943.7999877929688 811.0 951.5 L 811.5 961.0 L 813.0 972.5 Q 811.7000122070312 979.2999877929688 814.0 982.5 L 815.0 987.5 L 815.0 999.5 L 684.5 1000.0 L 683.0 993.5 L 681.0 973.5 L 681.0 961.5 Q 681.7999877929688 956.7999877929688 679.5 955.0 Q 676.7999877929688 951.2000122070312 678.0 943.5 L 676.5 924.0 L 675.0 923.5 L 673.0 899.5 L 671.0 890.5 L 670.0 878.5 Q 671.7999877929688 872.2999877929688 669.0 870.5 L 668.0 865.5 L 666.0 855.5 L 665.5 850.0 L 664.0 843.5 L 662.0 828.5 Q 662.7999877929688 822.2000122070312 660.0 819.5 L 659.0 816.5 L 658.0 808.5 Q 659.5 802.0 656.0 800.5 L 654.0 784.5 L 651.0 774.5 Q 651.7000122070312 768.7999877929688 649.0 766.5 L 647.0 759.5 L 643.0 744.5 Q 643.5999755859375 738.4000244140625 641.0 735.5 L 637.0 718.5 Q 633.7000122070312 713.2999877929688 634.5 704.0 L 633.0 703.5 L 631.0 695.5 L 630.0 688.5 Q 630.7000122070312 681.7999877929688 628.0 678.5 L 627.0 674.5 Q 624.7999877929688 673.2999877929688 626.0 668.5 Q 627.5 663.0 625.0 661.5 L 624.0 657.5 L 620.0 640.5 L 617.5 628.0 L 612.0 629.5 L 614.0 640.5 Q 610.0999755859375 643.0999755859375 611.0 650.5 L 608.0 669.5 L 605.0 685.5 Q 605.5999755859375 691.5999755859375 603.0 694.5 L 600.0 706.5 L 599.0 714.5 Q 599.5999755859375 719.0999755859375 597.0 720.5 L 595.0 738.5 L 593.0 745.5 L 591.0 755.5 Q 588.4000244140625 756.9000244140625 589.0 761.5 L 588.5 767.0 L 588.0 772.5 L 587.0 776.5 L 585.0 784.5 L 582.0 798.5 Q 583.2999877929688 803.2999877929688 581.0 804.5 Q 578.7999877929688 805.7999877929688 580.0 810.5 L 578.0 815.5 Q 575.2999877929688 817.2999877929688 577.0 823.5 L 575.0 832.5 Q 572.2000122070312 834.2000122070312 573.0 839.5 L 569.0 859.5 Q 569.7000122070312 865.2000122070312 567.0 867.5 Q 564.0 869.5 565.0 875.5 Q 566.2999877929688 881.7999877929688 562.5 883.0 Q 557.7999877929688 883.7999877929688 557.0 880.5 L 559.0 875.5 L 561.0 868.5 L 561.0 862.5 L 562.5 859.0 L 564.0 853.5 L 565.0 846.5 Q 564.2999877929688 842.2999877929688 567.0 841.5 L 569.0 831.5 L 569.0 824.5 L 570.5 821.0 L 572.5 813.0 L 574.5 805.0 Q 577.2000122070312 802.2000122070312 576.5 796.0 Q 576.0 789.0 578.5 785.0 L 580.0 777.5 Q 579.4000244140625 771.4000244140625 582.0 768.5 Q 584.9000244140625 764.9000244140625 584.0 757.5 L 585.0 753.5 Q 584.4000244140625 748.9000244140625 587.0 747.5 L 588.0 739.5 L 588.5 734.0 L 590.0 728.5 Q 592.7000122070312 725.2000122070312 592.0 718.5 Q 590.7999877929688 711.7999877929688 594.0 709.5 Q 596.7999877929688 706.7999877929688 596.0 700.5 L 597.0 692.5 Q 599.7000122070312 690.2000122070312 599.0 684.5 Q 598.4000244140625 678.4000244140625 601.0 675.5 L 603.0 666.5 L 605.5 652.0 L 608.0 650.5 L 607.0 637.5 Q 609.7999877929688 634.7999877929688 609.0 628.5 L 611.0 612.5 L 605.5 599.0 L 604.0 601.5 L 602.5 605.0 L 599.5 609.0 L 597.0 610.5 L 595.5 613.0 L 592.0 615.5 L 591.5 617.0 L 588.0 618.5 L 586.5 621.0 L 584.0 622.5 L 582.5 625.0 L 580.0 625.5 L 575.5 632.0 L 572.0 634.5 L 571.5 636.0 L 569.0 637.5 L 567.5 640.0 L 553.0 648.5 Q 546.2000122070312 654.2000122070312 531.5 652.0 Q 530.0999755859375 648.4000244140625 524.5 649.0 Q 515.5 645.5 510.0 638.5 L 504.0 630.5 Q 504.79998779296875 627.2999877929688 509.5 628.0 L 512.5 633.0 L 514.0 633.5 L 515.5 636.0 L 518.0 637.5 L 520.5 641.0 L 523.0 641.5 L 523.5 643.0 L 533.0 646.5 Q 535.7000122070312 649.2999877929688 542.5 648.0 Q 543.9000244140625 644.4000244140625 549.0 644.5 L 554.0 642.5 L 560.0 639.5 L 562.5 636.0 L 565.0 634.5 L 565.5 633.0 L 569.0 631.5 L 570.5 629.0 L 573.0 627.5 L 574.5 625.0 L 578.0 624.5 L 589.5 610.0 L 592.0 608.5 L 591.5 606.0 L 587.0 606.5 L 585.5 609.0 Q 576.5999755859375 607.5999755859375 571.5 610.0 L 566.5 613.0 L 555.0 613.5 L 517.5 614.0 L 514.5 613.0 L 506.5 613.0 Q 501.1000061035156 613.9000244140625 499.0 611.5 Q 497.0 607.0 488.5 609.0 L 482.5 609.0 Q 478.79998779296875 609.7999877929688 478.0 607.5 Q 476.29998779296875 605.2999877929688 471.5 606.0 L 464.5 605.0 Q 462.29998779296875 605.7999877929688 463.0 609.5 L 465.5 613.0 L 467.0 613.5 L 471.5 623.0 L 477.0 632.5 L 491.5 652.0 L 494.0 653.5 L 498.5 660.0 L 508.0 668.5 L 509.5 671.0 L 514.0 673.5 Q 515.0 678.0 512.5 679.0 L 507.0 676.5 L 504.5 672.0 L 501.0 669.5 L 500.5 668.0 L 498.0 666.5 L 496.5 664.0 L 495.0 663.5 L 492.5 660.0 L 491.0 659.5 L 486.5 652.0 L 484.0 651.5 L 476.5 641.0 L 475.0 640.5 L 471.0 633.5 L 470.0 630.5 L 467.0 626.5 L 464.5 623.0 Q 461.8999938964844 621.5999755859375 462.5 617.0 L 460.0 615.5 Q 460.20001220703125 610.2999877929688 457.0 608.5 L 454.5 603.0 L 447.5 600.0 Q 446.1000061035156 597.4000244140625 441.5 598.0 Q 436.5 599.0 435.5 596.0 Q 434.1000061035156 593.4000244140625 429.5 594.0 L 423.5 593.0 Q 422.79998779296875 590.2999877929688 418.5 591.0 L 409.5 587.0 L 403.0 584.5 Q 401.6000061035156 581.9000244140625 397.0 582.5 L 394.5 579.0 Q 390.29998779296875 579.7999877929688 389.5 577.0 L 382.5 572.0 L 378.5 574.0 L 374.5 575.0 Q 369.79998779296875 574.2999877929688 369.0 577.5 L 371.5 595.0 L 373.0 595.5 L 375.0 602.5 L 376.5 606.0 L 378.0 611.5 L 380.5 617.0 L 384.0 626.5 L 386.0 630.5 L 387.5 636.0 L 390.0 637.5 Q 389.29998779296875 643.2000122070312 392.0 645.5 L 394.0 650.5 L 396.0 654.5 L 398.0 659.5 Q 397.29998779296875 663.2999877929688 399.5 664.0 L 401.5 668.0 L 408.0 684.5 L 410.0 691.5 L 411.5 695.0 L 415.5 706.0 Q 417.79998779296875 706.7999877929688 417.0 710.5 L 423.0 727.5 L 425.0 733.5 L 426.0 738.5 L 429.0 745.5 Q 428.29998779296875 749.2999877929688 430.5 750.0 L 432.0 754.5 L 433.0 761.5 L 435.5 768.0 L 436.0 773.5 L 440.0 786.5 Q 439.29998779296875 792.2000122070312 442.0 794.5 Q 444.6000061035156 797.4000244140625 444.0 803.5 L 446.0 813.5 L 447.0 817.5 L 448.0 825.5 L 451.5 833.0 L 452.0 838.5 Q 450.5 844.0 453.0 845.5 L 454.0 851.5 L 456.5 858.0 L 457.0 862.5 L 459.0 877.5 L 461.0 891.5 L 461.5 897.0 L 463.0 903.5 Q 461.29998779296875 909.7999877929688 464.0 911.5 L 465.0 919.5 L 467.0 934.5 L 468.5 943.0 L 469.0 950.5 L 470.0 960.5 L 471.0 976.5 Q 469.5 986.0 472.0 991.5 L 473.0 999.5 L 155.5 1000.0 L 155.0 973.5 L 156.0 968.5 L 155.0 964.5 L 156.0 961.5 L 155.0 957.5 Q 159.89999389648438 953.4000244140625 158.0 942.5 L 158.0 911.5 L 158.5 892.0 L 160.0 879.5 Q 158.6999969482422 872.7000122070312 161.0 869.5 L 162.0 859.5 L 164.0 831.5 L 165.0 826.5 Q 167.3000030517578 825.2999877929688 166.0 820.5 L 166.0 805.5 L 168.0 780.5 Q 170.60000610351562 777.5999755859375 170.0 771.5 L 170.0 760.5 L 171.0 736.5 L 173.0 725.5 L 175.0 709.5 L 175.0 699.5 Q 174.0 694.5 177.0 693.5 L 179.0 684.5 L 183.5 676.0 Q 186.0 675.0 185.0 670.5 L 187.5 666.0 L 189.0 662.5 L 190.5 656.0 L 193.0 654.5 Q 192.3000030517578 649.7999877929688 194.5 648.0 Q 197.5 647.5 197.0 643.5 L 201.0 635.5 L 202.5 632.0 L 205.0 630.5 Q 204.3000030517578 625.7999877929688 207.5 625.0 L 217.0 618.5 L 228.5 613.0 L 236.5 609.0 L 241.0 607.5 Q 242.0 604.0 247.5 605.0 L 252.5 602.0 L 257.5 601.0 Q 263.0 602.0 264.0 598.5 L 282.5 592.0 L 305.0 582.5 L 316.5 578.0 L 322.5 575.0 L 333.5 571.0 L 338.5 569.0 Q 342.79998779296875 569.7999877929688 343.5 567.0 L 353.0 563.5 L 365.5 559.0 L 369.5 561.0 L 376.5 562.0 L 378.5 559.0 L 381.0 557.5 L 383.5 554.0 L 396.0 547.5 Q 397.5 544.5 403.5 546.0 Q 404.79998779296875 550.2999877929688 411.5 549.0 Q 411.5 543.0 414.5 540.0 Q 417.79998779296875 538.2999877929688 416.0 531.5 L 414.0 527.5 Q 416.6000061035156 526.0999755859375 416.0 521.5 Q 414.5 518.5 413.0 521.5 L 412.5 523.0 L 402.0 529.5 L 401.5 531.0 Q 396.1000061035156 531.9000244140625 394.0 529.5 L 397.0 521.5 L 401.5 511.0 L 403.0 510.5 L 404.0 502.5 L 402.0 501.5 L 401.5 504.0 L 392.0 510.5 L 386.5 513.0 L 383.0 511.5 Q 382.3999938964844 506.3999938964844 385.5 505.0 L 389.5 500.0 L 391.0 499.5 L 395.0 490.5 L 397.0 485.5 L 399.0 478.5 L 401.0 471.5 Q 400.3999938964844 465.3999938964844 404.0 463.5 L 400.5 458.0 Q 396.29998779296875 458.79998779296875 395.5 456.0 L 390.0 452.5 L 388.5 450.0 Q 384.29998779296875 450.79998779296875 383.5 448.0 L 383.0 451.5 Q 387.29998779296875 453.70001220703125 386.0 461.5 Q 384.79998779296875 464.29998779296875 379.5 463.0 L 377.0 461.5 L 375.5 458.0 L 372.0 455.5 L 360.5 437.0 L 359.0 437.5 Q 360.0 442.0 357.5 443.0 L 353.5 450.0 L 352.0 450.5 Q 351.5 456.0 347.5 458.0 L 345.0 459.5 L 337.5 469.0 L 331.5 470.0 Q 329.0 469.0 330.0 464.5 Q 335.5 458.5 334.0 445.5 L 328.0 430.5 L 326.0 425.5 Q 326.5 421.5 323.5 421.0 L 322.0 415.5 L 320.0 411.5 L 317.5 407.0 L 317.0 418.5 L 319.0 425.5 L 317.5 428.0 L 313.5 427.0 L 310.0 425.5 L 309.5 424.0 L 306.0 421.5 L 297.0 406.5 L 295.0 402.5 L 292.5 397.0 L 290.5 396.0 Q 281.20001220703125 403.20001220703125 275.5 414.0 L 273.0 415.5 L 271.5 418.0 L 265.0 417.5 L 266.0 413.5 L 268.0 408.5 L 270.0 404.5 L 274.0 395.5 L 270.5 395.0 L 266.5 400.0 L 265.0 400.5 L 264.5 402.0 L 262.0 402.5 L 260.5 405.0 L 254.0 408.5 L 253.5 410.0 L 247.5 411.0 L 245.0 409.5 L 245.5 406.0 L 247.0 405.5 L 249.5 402.0 L 251.0 401.5 L 252.5 398.0 L 255.0 397.5 L 254.5 395.0 Q 248.3000030517578 393.29998779296875 246.5 396.0 L 241.5 397.0 L 231.5 397.0 L 220.0 393.5 L 219.5 391.0 L 215.0 389.5 L 216.5 387.0 L 220.5 386.0 Q 222.0 388.5 227.5 387.0 L 232.0 384.5 L 234.0 380.5 Q 236.8000030517578 379.29998779296875 236.5 375.0 L 239.0 373.5 L 242.0 365.5 Q 244.60000610351562 364.1000061035156 244.0 359.5 L 241.5 352.0 Q 238.6999969482422 349.29998779296875 240.0 342.5 L 240.0 321.5 L 242.0 314.5 L 244.0 299.5 L 242.5 299.0 L 241.5 303.0 L 238.0 305.5 Q 238.8000030517578 309.29998779296875 236.5 310.0 L 232.5 318.0 L 231.0 318.5 L 230.0 324.5 L 228.5 330.0 Q 225.39999389648438 334.8999938964844 227.0 344.5 L 231.5 352.0 L 233.0 352.5 L 231.5 358.0 L 227.5 357.0 L 224.5 356.0 L 221.0 352.5 L 220.0 349.5 Q 220.5 345.5 217.5 345.0 L 216.0 335.5 L 215.0 323.5 Q 217.3000030517578 322.29998779296875 216.0 317.5 L 217.0 305.5 Q 216.10000610351562 300.1000061035156 218.5 298.0 L 220.0 292.5 Q 219.39999389648438 287.8999938964844 222.0 286.5 L 226.0 276.5 Q 228.60000610351562 275.1000061035156 228.0 270.5 L 226.0 271.5 L 224.5 274.0 Q 219.39999389648438 274.3999938964844 217.5 278.0 L 207.0 283.5 L 206.5 285.0 L 196.5 290.0 L 192.5 292.0 L 188.5 293.0 L 177.5 293.0 Q 174.3000030517578 292.29998779296875 175.0 287.5 L 177.5 286.0 Q 178.8000030517578 288.29998779296875 183.5 287.0 L 186.5 285.0 L 189.5 284.0 L 193.5 280.0 L 208.0 266.5 L 210.5 263.0 L 212.0 262.5 L 214.5 258.0 L 218.0 255.5 L 218.5 254.0 L 220.0 253.5 L 231.5 238.0 L 234.5 235.0 Q 237.3000030517578 233.8000030517578 236.0 228.5 Q 234.8000030517578 223.8000030517578 237.0 222.5 L 240.0 212.5 Q 239.10000610351562 207.10000610351562 241.5 205.0 L 246.5 190.0 L 256.0 167.5 L 270.5 140.0 L 272.0 139.5 L 272.5 136.0 L 274.0 135.5 L 295.5 101.0 L 298.0 99.5 L 299.5 97.0 L 302.0 95.5 L 302.5 94.0 L 307.0 91.5 L 307.5 90.0 L 315.5 86.0 L 322.0 83.5 L 327.5 82.0 Q 333.0 82.5 335.0 79.5 L 334.0 70.5 Q 334.79998779296875 65.80000305175781 332.5 64.0 Q 329.5 63.5 330.0 59.5 L 326.0 51.5 L 325.0 46.5 L 322.0 42.5 L 321.0 39.5 L 318.0 35.5 L 316.0 31.5 L 308.5 21.0 L 306.0 19.5 L 300.5 13.0 L 287.0 3.5 L 283.5 1.0 Q 280.5 1.5 281.5 0.0 Z" /><path desc="l 1 p 1" fill="rgb(253,253,253)" stroke="rgb(253,253,253)" stroke-width="1" opacity="1.0" d="M 301.5 0.0 L 1000.0 0.5 L 999.5 1000.0 L 815.0 999.5 L 815.0 988.5 L 814.0 982.5 Q 811.7000122070312 979.2999877929688 813.0 972.5 L 812.0 966.5 L 811.0 952.5 L 810.0 940.5 Q 806.0 937.0 808.0 927.5 L 805.5 916.0 Q 803.0 911.5 804.0 903.5 L 803.5 894.0 L 802.0 885.5 Q 803.7999877929688 879.2999877929688 801.0 877.5 L 799.5 864.0 L 797.0 851.5 L 796.0 847.5 L 796.0 838.5 L 795.0 820.5 Q 796.2999877929688 815.7999877929688 794.0 814.5 L 793.0 809.5 Q 790.7999877929688 808.2999877929688 792.0 803.5 L 791.0 790.5 L 789.0 785.5 L 788.0 781.5 L 788.0 773.5 L 787.0 768.5 L 785.0 764.5 L 784.0 756.5 Q 785.5 750.5 782.5 749.0 L 781.0 745.5 L 780.0 741.5 L 779.0 734.5 Q 776.2999877929688 733.7999877929688 777.0 729.5 L 776.0 723.5 L 774.5 720.0 Q 772.0 719.0 773.0 714.5 L 770.5 709.0 L 769.0 703.5 Q 769.5999755859375 698.9000244140625 767.0 697.5 L 763.0 687.5 L 761.0 681.5 L 759.5 678.0 L 754.5 671.0 L 753.0 670.5 L 751.5 668.0 L 734.5 655.0 L 726.5 650.0 Q 724.2999877929688 646.7000122070312 719.0 646.5 L 717.5 644.0 L 710.0 640.5 L 702.5 636.0 L 678.0 623.5 L 677.5 622.0 L 666.5 617.0 L 658.0 610.5 L 652.5 607.0 L 639.0 599.5 L 638.5 598.0 L 632.0 595.5 L 631.5 594.0 L 608.0 580.5 L 604.0 578.5 Q 603.2999877929688 576.2999877929688 599.5 577.0 L 593.5 576.0 L 589.5 574.0 L 581.5 573.0 L 570.0 572.5 L 567.5 569.0 L 565.0 568.5 L 562.5 565.0 L 559.0 563.5 L 557.5 561.0 L 554.0 558.5 L 547.5 549.0 L 545.0 542.5 Q 541.2999877929688 540.7999877929688 543.0 533.5 Q 544.5 530.5 546.0 533.5 L 550.5 538.0 L 556.5 539.0 L 557.0 531.5 L 554.0 525.5 L 551.5 519.0 Q 548.2999877929688 517.2999877929688 550.0 510.5 Q 551.2999877929688 507.79998779296875 552.5 510.0 Q 555.7000122070312 513.7999877929688 564.5 512.0 L 565.0 507.5 L 560.5 502.0 L 558.0 498.5 L 556.0 492.5 Q 553.0 491.5 554.0 486.5 L 553.0 475.5 Q 553.7999877929688 473.29998779296875 557.5 474.0 Q 561.5999755859375 477.8999938964844 570.5 477.0 L 590.5 477.0 L 601.0 470.5 L 602.5 467.0 L 605.0 465.5 L 606.5 462.0 L 609.0 460.5 L 610.0 456.5 L 613.0 452.5 L 622.5 437.0 Q 625.7000122070312 435.70001220703125 625.5 431.0 L 628.0 429.5 L 629.0 426.5 L 632.0 422.5 L 642.5 403.0 L 644.0 402.5 L 646.0 398.5 L 652.0 388.5 Q 651.2999877929688 384.79998779296875 653.5 384.0 L 655.0 379.5 L 656.5 369.0 Q 659.0999755859375 370.3999938964844 658.5 375.0 L 665.5 376.0 L 669.0 366.5 L 670.5 360.0 L 671.0 348.5 L 669.0 343.5 L 672.5 342.0 L 674.5 345.0 L 678.0 346.5 L 687.0 352.5 L 691.0 354.5 Q 692.2999877929688 357.29998779296875 697.5 356.0 Q 702.2999877929688 353.79998779296875 698.0 351.5 L 697.5 350.0 L 696.0 349.5 L 695.5 348.0 Q 690.7999877929688 348.79998779296875 690.0 345.5 L 689.5 343.0 L 687.0 341.5 L 681.5 329.0 Q 678.2999877929688 328.29998779296875 679.0 323.5 L 676.5 319.0 Q 673.7999877929688 317.79998779296875 675.0 312.5 L 672.5 306.0 Q 669.9000244140625 303.6000061035156 671.0 297.5 L 674.0 293.5 L 675.0 290.5 L 676.5 286.0 L 678.0 278.5 L 678.5 270.0 L 681.0 270.5 L 686.5 282.0 Q 689.5 282.5 689.0 286.5 L 690.0 290.5 Q 693.7999877929688 292.29998779296875 692.0 299.5 Q 689.2999877929688 300.29998779296875 690.0 304.5 Q 691.2999877929688 307.29998779296875 696.5 306.0 L 700.0 299.5 Q 702.7999877929688 297.79998779296875 702.0 292.5 L 702.0 280.5 L 695.0 263.5 L 692.0 255.5 L 690.0 251.5 L 685.5 242.0 L 684.0 241.5 L 684.5 239.0 L 690.5 240.0 Q 691.9000244140625 243.60000610351562 697.5 243.0 Q 703.2000122070312 242.3000030517578 705.5 245.0 Q 708.7999877929688 247.6999969482422 715.5 247.0 L 722.0 244.5 L 728.0 240.5 L 726.5 237.0 L 710.5 238.0 L 707.5 235.0 L 704.5 234.0 L 696.0 227.5 L 692.0 225.5 L 689.5 222.0 L 678.0 212.5 L 677.5 211.0 L 667.0 201.5 L 665.5 197.0 L 664.0 196.5 L 663.0 189.5 L 661.0 185.5 L 653.5 170.0 L 652.0 169.5 L 651.0 164.5 L 648.0 160.5 L 646.0 156.5 L 642.0 150.5 L 627.5 129.0 L 625.0 127.5 L 622.5 124.0 L 621.0 123.5 L 620.5 121.0 L 617.0 119.5 L 616.5 117.0 L 614.0 116.5 L 614.5 115.0 Q 618.2999877929688 114.30000305175781 619.0 116.5 L 622.5 118.0 L 626.5 120.0 L 634.0 123.5 L 648.0 131.5 L 648.5 133.0 L 655.0 135.5 L 655.5 137.0 L 659.0 139.5 L 664.5 148.0 L 668.0 155.5 Q 671.0 158.5 670.0 165.5 L 668.0 169.5 L 667.0 173.5 L 669.5 175.0 L 675.0 172.5 L 677.5 169.0 Q 680.0999755859375 166.60000610351562 679.0 160.5 L 675.0 150.5 L 669.0 139.5 L 661.5 129.0 L 659.0 127.5 L 658.5 125.0 L 656.0 124.5 L 654.5 121.0 L 652.0 120.5 L 649.5 117.0 L 647.0 115.5 L 646.5 114.0 L 641.0 110.5 L 640.5 109.0 L 632.0 103.5 L 631.5 102.0 L 615.0 91.5 L 597.5 82.0 L 589.5 77.0 L 580.5 73.0 L 574.0 70.5 L 567.0 68.5 L 569.5 67.0 L 577.5 65.0 L 584.5 64.0 L 598.0 63.5 L 610.5 60.0 Q 615.0999755859375 60.599998474121094 616.5 58.0 L 632.0 50.5 L 632.5 49.0 Q 636.5 49.5 637.0 46.5 L 637.5 45.0 L 641.0 42.5 L 644.0 37.5 L 646.0 29.5 Q 645.2999877929688 26.299999237060547 640.5 27.0 L 639.0 30.5 L 637.5 34.0 L 634.5 38.0 L 628.5 39.0 L 621.5 41.0 L 589.5 43.0 Q 584.7000122070312 47.20000076293945 574.5 46.0 L 548.5 46.0 L 538.5 35.0 L 525.0 28.5 L 520.0 26.5 L 516.0 24.5 L 510.5 23.0 Q 505.79998779296875 23.799999237060547 504.0 21.5 Q 503.0 18.0 497.5 19.0 L 490.5 18.0 L 483.5 16.0 L 462.5 15.0 L 437.5 15.0 Q 430.0 16.5 426.5 14.0 L 424.5 15.0 L 422.5 15.0 L 409.5 15.0 L 401.5 16.0 L 387.5 21.0 L 381.5 23.0 L 367.5 30.0 Q 366.1000061035156 34.099998474121094 361.0 34.5 L 353.0 45.5 L 351.0 49.5 Q 348.29998779296875 51.79999923706055 348.5 57.0 L 347.0 56.5 L 344.0 44.5 L 340.5 36.0 L 337.5 31.0 L 335.5 26.0 L 332.0 23.5 L 331.5 22.0 L 330.0 21.5 L 320.5 11.0 L 316.5 9.0 L 311.0 5.5 L 305.5 3.0 L 302.5 1.0 L 301.5 0.0 Z" /><path desc="l 1 p 2" fill="rgb(253,253,253)" stroke="rgb(253,253,253)" stroke-width="1" opacity="1.0" d="M 444.5 24.0 L 467.5 24.0 Q 474.29998779296875 22.700000762939453 477.5 25.0 L 483.5 26.0 L 485.5 25.0 L 500.5 29.0 Q 505.5 28.0 506.5 31.0 L 513.5 33.0 L 518.5 35.0 L 529.0 40.5 L 537.0 45.5 Q 535.5 48.5 529.5 47.0 L 519.5 45.0 L 514.5 42.0 Q 510.0 43.0 509.0 40.5 Q 507.6000061035156 37.900001525878906 503.0 38.5 L 493.5 37.0 L 489.5 35.0 L 484.0 34.5 L 479.5 34.0 Q 475.79998779296875 34.79999923706055 475.0 32.5 Q 472.0 29.5 464.5 31.0 L 453.0 28.5 L 446.5 27.0 L 439.0 26.5 L 444.5 24.0 Z" /><path desc="l 1 p 3" fill="rgb(253,253,253)" stroke="rgb(253,253,253)" stroke-width="1" opacity="1.0" d="M 497.5 64.0 L 501.0 64.5 L 500.5 66.0 L 498.5 65.0 L 497.5 64.0 Z" /><path desc="l 1 p 4" fill="rgb(253,253,253)" stroke="rgb(253,253,253)" stroke-width="1" opacity="1.0" d="M 503.5 68.0 L 506.0 68.5 Q 503.8999938964844 71.80000305175781 503.5 68.0 Z" /><path desc="l 1 p 5" fill="rgb(253,253,253)" stroke="rgb(253,253,253)" stroke-width="1" opacity="1.0" d="M 507.5 71.0 Q 511.5 70.5 512.0 73.5 L 525.0 84.5 L 535.5 98.0 L 537.0 98.5 L 538.5 102.0 L 541.0 103.5 L 541.5 107.0 L 544.0 108.5 L 550.5 119.0 L 554.5 127.0 L 558.5 136.0 L 561.0 142.5 Q 559.5 145.5 558.0 142.5 L 552.5 133.0 L 550.0 131.5 L 549.5 129.0 L 546.0 126.5 L 545.5 124.0 L 537.5 119.0 L 536.0 122.5 L 539.5 129.0 L 543.0 138.5 L 544.0 141.5 L 545.0 145.5 L 545.0 154.5 L 542.0 152.5 Q 542.7999877929688 148.3000030517578 540.0 147.5 L 532.5 136.0 L 531.0 135.5 L 528.5 130.0 L 527.0 129.5 L 525.5 127.0 L 523.5 126.0 L 518.5 128.0 L 509.5 128.0 L 501.5 117.0 L 500.0 116.5 L 498.5 113.0 L 496.0 111.5 Q 495.3999938964844 106.4000015258789 498.5 105.0 L 501.0 105.5 L 503.5 110.0 L 507.0 111.5 L 507.5 113.0 L 511.0 112.5 Q 513.0 104.5 509.0 102.5 L 507.0 98.5 L 502.5 90.0 L 500.0 88.5 L 500.5 85.0 L 501.5 87.0 L 505.0 87.5 L 507.5 91.0 L 513.0 94.5 L 522.0 100.5 L 526.5 107.0 L 530.0 109.5 L 530.5 111.0 L 533.5 112.0 Q 535.7999877929688 111.30000305175781 535.0 107.5 L 529.5 98.0 L 527.0 97.5 Q 527.7999877929688 92.80000305175781 524.5 92.0 L 523.0 91.5 Q 523.5 87.5 520.5 87.0 L 513.5 78.0 L 511.0 76.5 L 510.5 73.0 L 507.0 72.5 L 507.5 71.0 Z" /><path desc="l 1 p 6" fill="rgb(253,253,253)" stroke="rgb(253,253,253)" stroke-width="1" opacity="1.0" d="M 367.5 76.0 L 369.0 76.5 L 368.5 78.0 L 367.0 77.5 L 367.5 76.0 Z" /><path desc="l 1 p 7" fill="rgb(253,253,253)" stroke="rgb(253,253,253)" stroke-width="1" opacity="1.0" d="M 348.5 77.0 L 349.0 80.5 L 348.0 80.5 L 348.5 77.0 Z" /><path desc="l 1 p 8" fill="rgb(253,253,253)" stroke="rgb(253,253,253)" stroke-width="1" opacity="1.0" d="M 473.5 114.0 L 474.0 116.5 L 473.0 116.5 L 473.5 114.0 Z" /><path desc="l 1 p 9" fill="rgb(253,253,253)" stroke="rgb(253,253,253)" stroke-width="1" opacity="1.0" d="M 476.5 118.0 L 478.0 118.5 L 479.0 121.5 L 482.0 124.5 L 489.5 137.0 Q 493.79998779296875 140.8000030517578 495.0 147.5 L 491.0 149.5 L 481.5 153.0 Q 478.5 151.5 480.0 145.5 Q 481.1000061035156 139.39999389648438 478.5 137.0 L 476.0 129.5 L 476.0 123.5 L 475.0 119.5 L 476.5 118.0 Z" /><path desc="l 1 p 10" fill="rgb(253,253,253)" stroke="rgb(253,253,253)" stroke-width="1" opacity="1.0" d="M 593.5 143.0 L 595.0 143.5 L 609.5 162.0 L 611.0 162.5 L 614.0 170.5 Q 606.0 169.5 603.0 173.5 L 605.5 178.0 L 611.5 178.0 L 615.0 179.5 L 622.0 182.5 L 623.0 185.5 L 626.0 188.5 L 635.5 203.0 L 638.0 204.5 L 640.0 209.5 L 641.0 218.5 L 641.0 240.5 L 638.5 241.0 L 631.0 236.5 L 632.0 231.5 L 628.0 229.5 L 626.5 227.0 Q 620.5 225.5 619.0 228.5 L 612.0 231.5 L 610.5 234.0 L 607.5 235.0 L 603.0 239.5 L 604.5 243.0 L 607.0 243.5 L 603.0 246.5 L 600.0 253.5 L 602.5 258.0 Q 607.7999877929688 259.29998779296875 609.0 256.5 Q 608.5 251.5 612.5 251.0 L 617.5 248.0 Q 619.2999877929688 245.3000030517578 625.5 247.0 L 627.0 249.5 L 623.5 253.0 Q 620.7999877929688 254.3000030517578 622.0 259.5 Q 624.7000122070312 261.79998779296875 624.0 267.5 Q 622.7999877929688 272.29998779296875 625.0 273.5 L 626.0 279.5 Q 625.0999755859375 286.3999938964844 628.5 289.0 L 633.0 291.5 L 629.5 297.0 L 628.0 297.5 Q 626.7000122070312 304.29998779296875 629.0 307.5 L 632.5 313.0 L 639.5 314.0 L 641.0 313.5 Q 639.2999877929688 319.79998779296875 642.0 321.5 L 646.0 337.5 L 648.0 344.5 Q 650.7000122070312 348.29998779296875 649.0 356.5 Q 646.0 360.0 646.5 367.0 L 644.0 374.5 L 639.0 387.5 L 633.0 402.5 L 630.0 406.5 L 626.0 414.5 L 618.5 425.0 L 605.5 444.0 L 603.0 445.5 L 602.5 448.0 L 599.0 450.5 L 598.0 453.5 L 593.5 460.0 L 591.0 461.5 L 586.5 467.0 L 573.5 467.0 L 566.5 466.0 L 557.5 465.0 L 551.5 465.0 L 548.5 464.0 L 541.5 463.0 L 529.5 462.0 L 498.5 459.0 L 495.0 461.5 L 495.5 465.0 L 500.0 467.5 L 500.5 469.0 L 507.5 471.0 L 516.0 475.5 L 534.0 486.5 L 533.0 502.5 L 533.0 531.5 L 534.0 533.5 Q 531.5 535.0 533.0 540.5 L 538.5 554.0 Q 541.7000122070312 555.2999877929688 541.5 560.0 L 543.0 560.5 L 549.5 568.0 L 551.0 568.5 L 552.5 571.0 L 556.0 572.5 L 557.5 575.0 L 560.0 575.5 L 559.5 577.0 L 547.5 577.0 Q 542.7999877929688 578.2999877929688 541.5 576.0 L 538.0 573.5 L 535.5 570.0 Q 533.0 569.0 534.0 564.5 L 533.5 555.0 L 530.5 554.0 Q 526.0 556.5 527.0 564.5 L 529.0 568.5 L 531.0 576.5 L 518.5 577.0 L 513.5 576.0 L 505.5 575.0 L 494.5 573.0 Q 487.20001220703125 573.7999877929688 484.0 570.5 Q 482.8999938964844 562.0999755859375 477.5 558.0 Q 473.5 558.5 474.0 563.5 L 473.5 569.0 Q 466.5 570.0 463.5 567.0 Q 458.8999938964844 564.0999755859375 451.0 564.5 L 450.5 563.0 L 440.5 561.0 L 432.5 560.0 L 428.5 558.0 L 421.0 556.5 Q 420.0 550.5 423.0 548.5 Q 425.79998779296875 546.7999877929688 425.0 541.5 L 426.0 535.5 L 429.0 529.5 Q 428.29998779296875 524.7999877929688 430.5 523.0 Q 432.79998779296875 520.2999877929688 432.0 514.5 L 433.0 500.5 L 432.0 497.5 Q 434.79998779296875 495.79998779296875 433.0 489.5 L 433.0 465.5 L 433.0 455.5 L 434.0 450.5 L 435.5 444.0 L 436.0 437.5 Q 432.70001220703125 429.29998779296875 425.5 425.0 L 419.0 420.5 L 419.5 418.0 L 423.5 419.0 L 428.5 420.0 L 431.0 417.5 Q 433.29998779296875 416.29998779296875 430.5 415.0 L 424.5 409.0 L 417.0 403.5 L 416.5 402.0 L 413.0 400.5 L 412.5 398.0 L 408.5 396.0 L 403.5 393.0 L 398.5 392.0 L 396.5 392.0 L 390.0 388.5 L 389.5 376.0 L 382.0 372.5 L 381.5 371.0 Q 376.79998779296875 371.79998779296875 376.0 368.5 Q 379.6000061035156 363.1000061035156 378.0 352.5 L 375.0 350.5 L 374.5 348.0 L 367.5 346.0 L 357.0 353.5 L 356.5 355.0 L 353.0 357.5 L 352.5 359.0 L 349.0 360.5 Q 349.79998779296875 364.79998779296875 347.0 365.5 Q 348.0 368.0 352.5 367.0 L 363.0 357.5 L 363.5 356.0 L 367.5 353.0 Q 371.5 354.5 370.0 361.5 L 366.0 370.5 L 370.5 376.0 L 372.0 376.5 L 371.5 379.0 Q 369.6000061035156 382.6000061035156 363.5 382.0 L 350.5 383.0 L 348.5 382.0 L 345.0 383.5 L 342.5 390.0 L 339.0 392.5 L 338.5 394.0 L 336.0 393.5 L 326.0 377.5 L 321.0 365.5 L 319.0 358.5 L 319.0 348.5 Q 321.79998779296875 346.29998779296875 321.5 341.0 L 324.0 339.5 L 327.0 331.5 L 324.0 330.5 L 323.0 328.5 L 325.5 318.0 L 327.0 317.5 L 327.5 314.0 L 331.0 314.5 L 330.0 319.5 L 341.0 325.5 L 353.0 333.5 L 349.5 340.0 L 348.0 340.5 L 345.5 344.0 L 342.0 346.5 L 343.5 350.0 L 350.0 346.5 L 351.5 344.0 L 355.0 342.5 L 355.5 341.0 L 357.0 340.5 Q 360.6000061035156 338.6000061035156 360.0 332.5 L 359.0 329.5 L 363.5 329.0 L 366.5 333.0 L 368.0 333.5 L 370.5 337.0 L 380.0 344.5 L 386.5 354.0 L 389.0 355.5 L 391.5 360.0 L 395.0 362.5 L 395.5 364.0 L 397.0 364.5 L 398.5 367.0 L 408.0 374.5 L 408.5 376.0 L 412.0 377.5 L 412.5 379.0 L 430.5 391.0 Q 434.29998779296875 395.70001220703125 441.5 397.0 Q 443.79998779296875 396.29998779296875 443.0 392.5 L 441.5 390.0 L 440.0 389.5 L 439.5 386.0 L 437.0 384.5 L 431.5 374.0 Q 428.29998779296875 373.29998779296875 429.0 368.5 L 431.5 368.0 L 432.5 371.0 L 436.5 373.0 L 442.0 378.5 L 446.0 381.5 L 451.5 383.0 L 453.0 380.5 L 443.5 367.0 L 442.0 366.5 L 437.0 357.5 L 439.0 356.5 L 439.5 360.0 Q 443.79998779296875 359.29998779296875 444.5 362.0 L 456.0 369.5 L 456.5 371.0 L 463.0 373.5 L 466.5 375.0 L 472.5 375.0 Q 475.29998779296875 373.79998779296875 474.0 368.5 Q 473.0 366.0 468.5 367.0 L 457.0 358.5 L 441.0 331.5 L 437.0 324.5 L 431.5 311.0 L 429.0 309.5 Q 427.79998779296875 304.29998779296875 430.5 303.0 L 435.0 299.5 L 440.0 286.5 L 444.0 274.5 L 449.0 254.5 Q 446.79998779296875 253.3000030517578 448.0 248.5 L 457.0 240.5 L 457.5 239.0 L 460.0 238.5 L 461.5 236.0 L 465.5 233.0 L 467.0 255.5 L 464.5 262.0 L 463.0 264.5 L 462.0 270.5 L 465.5 273.0 L 472.5 265.0 L 475.0 260.5 L 477.0 254.5 L 479.5 249.0 L 482.0 232.5 Q 485.0 230.0 484.5 224.0 L 488.0 225.5 Q 489.79998779296875 227.8000030517578 494.5 227.0 L 504.0 228.5 Q 498.79998779296875 231.3000030517578 500.0 240.5 L 503.0 255.5 Q 505.79998779296875 258.20001220703125 505.0 264.5 Q 503.79998779296875 269.29998779296875 506.0 270.5 L 509.5 277.0 L 517.0 279.5 L 518.0 283.5 Q 515.0 286.5 515.0 292.5 L 519.5 299.0 L 524.5 301.0 L 530.0 298.5 L 531.0 286.5 Q 529.5 281.0 532.0 279.5 Q 529.5 278.0 531.0 272.5 L 530.5 264.0 L 529.5 259.0 L 525.5 246.0 L 523.0 245.5 Q 523.5999755859375 240.39999389648438 520.5 239.0 L 519.0 238.5 L 519.5 235.0 L 529.0 241.5 L 529.5 243.0 Q 531.2000122070312 245.8000030517578 536.5 245.0 Q 539.5 243.5 538.0 237.5 L 531.5 230.0 L 523.0 224.5 L 521.5 222.0 L 517.0 220.5 Q 518.2999877929688 217.8000030517578 519.5 220.0 L 525.0 220.5 L 526.5 223.0 L 532.5 226.0 L 541.0 232.5 Q 540.2999877929688 236.8000030517578 543.0 237.5 Q 545.7999877929688 239.1999969482422 545.0 244.5 L 546.0 252.5 L 546.0 262.5 L 547.0 267.5 L 548.0 273.5 Q 545.0999755859375 277.1000061035156 546.0 284.5 L 545.0 297.5 L 546.5 300.0 L 549.0 299.5 L 555.5 289.0 L 557.0 288.5 L 558.0 284.5 L 559.5 281.0 L 561.0 283.5 L 561.0 285.5 L 560.0 292.5 L 558.0 299.5 L 563.5 302.0 Q 571.7000122070312 295.70001220703125 573.0 282.5 L 574.0 274.5 Q 573.5 269.0 576.5 267.0 L 585.0 261.5 L 592.0 252.5 L 595.0 245.5 L 599.5 234.0 Q 601.7999877929688 232.3000030517578 601.0 227.5 L 603.0 214.5 L 604.0 204.5 Q 601.2999877929688 202.8000030517578 603.0 196.5 L 602.0 186.5 L 601.0 177.5 L 600.0 172.5 L 593.5 143.0 Z" /><path desc="l 1 p 11" fill="rgb(253,253,253)" stroke="rgb(253,253,253)" stroke-width="1" opacity="1.0" d="M 498.5 155.0 L 503.0 158.5 Q 504.6000061035156 166.39999389648438 510.0 170.5 L 514.5 181.0 L 516.0 181.5 L 520.0 189.5 L 525.5 200.0 L 530.5 212.0 L 533.0 213.5 L 532.5 217.0 L 524.5 213.0 Q 521.2999877929688 209.1999969482422 512.5 211.0 L 511.0 213.5 L 516.0 217.5 Q 514.2999877929688 220.8000030517578 507.5 219.0 Q 504.0 216.0 497.0 216.5 Q 501.70001220703125 216.6999969482422 503.0 213.5 L 501.5 208.0 L 494.0 208.5 L 485.5 211.0 Q 482.29998779296875 209.3000030517578 484.0 202.5 L 484.0 181.5 Q 485.6000061035156 169.39999389648438 482.0 162.5 L 490.5 158.0 L 498.5 155.0 Z" /><path desc="l 1 p 12" fill="rgb(253,253,253)" stroke="rgb(253,253,253)" stroke-width="1" opacity="1.0" d="M 313.5 160.0 L 314.0 164.5 L 313.0 164.5 L 312.0 161.5 L 313.5 160.0 Z" /><path desc="l 1 p 13" fill="rgb(253,253,253)" stroke="rgb(253,253,253)" stroke-width="1" opacity="1.0" d="M 453.5 164.0 Q 455.79998779296875 164.8000030517578 455.0 168.5 Q 453.5 171.5 452.0 168.5 Q 451.29998779296875 164.8000030517578 453.5 164.0 Z" /><path desc="l 1 p 14" fill="rgb(253,253,253)" stroke="rgb(253,253,253)" stroke-width="1" opacity="1.0" d="M 457.5 177.0 L 459.0 184.5 Q 458.29998779296875 189.3000030517578 460.5 191.0 L 462.0 196.5 L 463.0 203.5 L 464.0 216.5 L 453.5 222.0 L 452.0 218.5 L 452.0 210.5 L 452.0 181.5 L 457.5 177.0 Z" /><path desc="l 1 p 15" fill="rgb(253,253,253)" stroke="rgb(253,253,253)" stroke-width="1" opacity="1.0" d="M 344.5 178.0 L 347.0 191.5 L 349.0 198.5 Q 349.79998779296875 207.8000030517578 355.5 212.0 L 358.0 211.5 L 359.5 207.0 L 361.0 214.5 Q 360.0 221.0 363.5 223.0 Q 366.0 227.5 365.0 235.5 L 365.0 246.5 L 366.0 252.5 L 360.0 255.5 L 359.0 259.5 Q 362.5 263.5 361.0 272.5 L 359.0 271.5 Q 360.0 266.0 356.5 265.0 L 355.0 264.5 Q 355.8999938964844 257.6000061035156 352.5 255.0 L 348.5 252.0 Q 346.0 253.0 347.0 257.5 L 351.5 269.0 L 354.5 279.0 L 357.0 284.5 L 358.0 287.5 L 361.0 291.5 Q 360.0 297.0 363.5 298.0 L 365.0 298.5 L 368.0 304.5 Q 370.79998779296875 305.79998779296875 370.5 310.0 L 372.0 310.5 L 373.0 314.5 L 374.5 318.0 L 376.0 318.5 L 379.0 324.5 L 380.0 328.5 L 379.0 328.5 L 377.5 324.0 L 375.0 323.5 L 372.5 319.0 L 371.0 318.5 Q 371.79998779296875 314.29998779296875 369.0 313.5 L 365.0 307.5 L 355.0 291.5 Q 356.0 284.5 351.0 283.5 Q 351.79998779296875 278.29998779296875 348.0 277.5 L 344.0 265.5 L 338.0 245.5 Q 335.20001220703125 242.8000030517578 336.0 236.5 L 335.0 228.5 L 336.5 228.0 L 341.0 231.5 L 342.0 227.5 Q 339.29998779296875 224.1999969482422 340.0 217.5 L 339.0 209.5 L 340.5 201.0 L 341.0 191.5 L 342.0 187.5 L 343.0 182.5 L 344.5 178.0 Z" /><path desc="l 1 p 16" fill="rgb(253,253,253)" stroke="rgb(253,253,253)" stroke-width="1" opacity="1.0" d="M 309.5 179.0 L 310.0 181.5 L 309.0 181.5 L 309.5 179.0 Z" /><path desc="l 1 p 17" fill="rgb(253,253,253)" stroke="rgb(253,253,253)" stroke-width="1" opacity="1.0" d="M 387.5 201.0 L 389.0 205.5 L 387.0 206.5 L 387.5 201.0 Z" /><path desc="l 1 p 18" fill="rgb(253,253,253)" stroke="rgb(253,253,253)" stroke-width="1" opacity="1.0" d="M 304.5 203.0 L 306.0 203.5 L 305.5 217.0 L 304.0 216.5 L 304.5 203.0 Z" /><path desc="l 1 p 19" fill="rgb(253,253,253)" stroke="rgb(253,253,253)" stroke-width="1" opacity="1.0" d="M 390.5 214.0 Q 393.29998779296875 215.3000030517578 392.0 220.5 L 390.5 221.0 L 390.5 214.0 Z" /><path desc="l 1 p 20" fill="rgb(253,253,253)" stroke="rgb(253,253,253)" stroke-width="1" opacity="1.0" d="M 594.5 215.0 L 595.0 218.5 L 594.0 218.5 L 594.5 215.0 Z" /><path desc="l 1 p 21" fill="rgb(253,253,253)" stroke="rgb(253,253,253)" stroke-width="1" opacity="1.0" d="M 332.5 219.0 L 334.0 219.5 L 333.5 228.0 Q 330.8999938964844 224.6999969482422 332.5 219.0 Z" /><path desc="l 1 p 22" fill="rgb(253,253,253)" stroke="rgb(253,253,253)" stroke-width="1" opacity="1.0" d="M 590.5 229.0 L 591.0 235.5 L 590.0 235.5 L 590.5 229.0 Z" /><path desc="l 1 p 23" fill="rgb(253,253,253)" stroke="rgb(253,253,253)" stroke-width="1" opacity="1.0" d="M 394.5 231.0 L 395.0 234.5 L 394.0 234.5 L 394.5 231.0 Z" /><path desc="l 1 p 24" fill="rgb(253,253,253)" stroke="rgb(253,253,253)" stroke-width="1" opacity="1.0" d="M 515.5 232.0 L 517.0 232.5 L 516.5 234.0 L 515.0 233.5 L 515.5 232.0 Z" /><path desc="l 1 p 25" fill="rgb(253,253,253)" stroke="rgb(253,253,253)" stroke-width="1" opacity="1.0" d="M 616.5 235.0 L 622.0 235.5 L 617.5 238.0 L 616.5 235.0 Z" /><path desc="l 1 p 26" fill="rgb(253,253,253)" stroke="rgb(253,253,253)" stroke-width="1" opacity="1.0" d="M 586.5 239.0 L 588.0 239.5 L 586.5 245.0 L 585.0 244.5 L 586.5 239.0 Z" /><path desc="l 1 p 27" fill="rgb(253,253,253)" stroke="rgb(253,253,253)" stroke-width="1" opacity="1.0" d="M 582.5 246.0 L 584.0 248.5 L 582.0 249.5 L 582.5 246.0 Z" /><path desc="l 1 p 28" fill="rgb(253,253,253)" stroke="rgb(253,253,253)" stroke-width="1" opacity="1.0" d="M 579.5 250.0 L 580.0 253.5 L 578.5 256.0 L 577.0 255.5 Q 576.2999877929688 250.8000030517578 579.5 250.0 Z" /><path desc="l 1 p 29" fill="rgb(253,253,253)" stroke="rgb(253,253,253)" stroke-width="1" opacity="1.0" d="M 575.5 255.0 L 576.0 257.5 L 574.5 258.0 L 574.0 256.5 L 575.5 255.0 Z" /><path desc="l 1 p 30" fill="rgb(253,253,253)" stroke="rgb(253,253,253)" stroke-width="1" opacity="1.0" d="M 434.5 267.0 L 435.0 272.5 L 433.5 273.0 L 433.0 268.5 L 434.5 267.0 Z" /><path desc="l 1 p 31" fill="rgb(253,253,253)" stroke="rgb(253,253,253)" stroke-width="1" opacity="1.0" d="M 363.5 273.0 Q 365.8999938964844 275.1000061035156 365.0 280.5 L 363.5 281.0 L 363.5 273.0 Z" /><path desc="l 1 p 32" fill="rgb(253,253,253)" stroke="rgb(253,253,253)" stroke-width="1" opacity="1.0" d="M 430.5 274.0 L 432.0 274.5 Q 433.1000061035156 283.1000061035156 429.5 287.0 L 426.5 294.0 L 422.0 291.5 L 421.0 287.5 Q 427.5 282.5 430.5 274.0 Z" /><path desc="l 0 p 1" fill="rgb(2,2,2)" stroke="rgb(2,2,2)" stroke-width="1" opacity="1.0" d="M 492.5 290.0 L 495.0 295.5 L 492.5 297.0 L 489.0 295.5 L 492.5 290.0 Z" /><path desc="l 0 p 2" fill="rgb(2,2,2)" stroke="rgb(2,2,2)" stroke-width="1" opacity="1.0" d="M 499.5 294.0 L 503.0 295.5 L 502.5 300.0 L 499.0 299.5 L 499.5 294.0 Z" /><path desc="l 0 p 3" fill="rgb(2,2,2)" stroke="rgb(2,2,2)" stroke-width="1" opacity="1.0" d="M 511.5 298.0 L 515.0 298.5 L 514.5 303.0 L 512.5 304.0 Q 509.6000061035156 302.6000061035156 511.5 298.0 Z" /><path desc="l 0 p 4" fill="rgb(2,2,2)" stroke="rgb(2,2,2)" stroke-width="1" opacity="1.0" d="M 605.5 299.0 L 613.0 304.5 L 616.5 309.0 L 625.0 315.5 L 626.0 318.5 L 623.5 322.0 Q 617.0999755859375 322.8999938964844 615.5 319.0 L 609.0 312.5 L 608.5 311.0 L 607.0 310.5 L 602.0 302.5 L 605.5 299.0 Z" /><path desc="l 1 p 33" fill="rgb(253,253,253)" stroke="rgb(253,253,253)" stroke-width="1" opacity="1.0" d="M 332.5 310.0 L 337.0 310.5 L 336.5 312.0 L 332.5 313.0 Q 329.5 311.5 332.5 310.0 Z" /><path desc="l 1 p 34" fill="rgb(253,253,253)" stroke="rgb(253,253,253)" stroke-width="1" opacity="1.0" d="M 338.5 312.0 L 346.0 314.5 L 347.5 317.0 L 350.0 318.5 L 349.5 320.0 L 337.0 314.5 L 338.5 312.0 Z" /><path desc="l 1 p 35" fill="rgb(253,253,253)" stroke="rgb(253,253,253)" stroke-width="1" opacity="1.0" d="M 351.5 321.0 Q 355.5 320.5 356.0 323.5 L 358.0 326.5 L 355.5 327.0 L 353.5 324.0 L 351.0 322.5 L 351.5 321.0 Z" /><path desc="l 0 p 5" fill="rgb(2,2,2)" stroke="rgb(2,2,2)" stroke-width="1" opacity="1.0" d="M 327.5 325.0 L 330.0 325.5 L 329.5 330.0 L 327.0 329.5 L 326.0 326.5 L 327.5 325.0 Z" /><path desc="l 1 p 36" fill="rgb(253,253,253)" stroke="rgb(253,253,253)" stroke-width="1" opacity="1.0" d="M 382.5 330.0 L 385.0 333.5 Q 383.5 336.5 382.0 333.5 L 382.5 330.0 Z" /><path desc="l 1 p 37" fill="rgb(253,253,253)" stroke="rgb(253,253,253)" stroke-width="1" opacity="1.0" d="M 386.5 337.0 L 389.0 337.5 L 387.5 340.0 L 386.5 337.0 Z" /><path desc="l 0 p 6" fill="rgb(2,2,2)" stroke="rgb(2,2,2)" stroke-width="1" opacity="1.0" d="M 324.5 344.0 Q 330.0 344.5 332.0 348.5 Q 331.0 356.5 333.5 361.0 Q 336.5 364.0 336.5 370.0 L 339.0 371.5 L 340.0 378.5 Q 339.0 381.0 334.5 380.0 L 330.0 376.5 L 327.5 371.0 L 326.0 370.5 L 325.0 360.5 L 323.0 355.5 L 322.0 346.5 L 324.5 344.0 Z" /><path desc="l 0 p 7" fill="rgb(2,2,2)" stroke="rgb(2,2,2)" stroke-width="1" opacity="1.0" d="M 604.5 382.0 Q 611.5 380.5 613.0 384.5 L 609.5 389.0 Q 604.0 390.0 603.0 386.5 Q 602.2999877929688 382.79998779296875 604.5 382.0 Z" /><path desc="l 1 p 38" fill="rgb(253,253,253)" stroke="rgb(253,253,253)" stroke-width="1" opacity="1.0" d="M 373.5 387.0 Q 381.20001220703125 386.29998779296875 384.0 390.5 L 385.0 394.5 Q 382.0 395.5 383.0 400.5 L 385.0 405.5 L 366.5 406.0 Q 364.79998779296875 403.29998779296875 358.5 405.0 Q 354.0 406.0 353.0 403.5 L 345.0 400.5 L 344.5 398.0 L 340.0 396.5 Q 341.29998779296875 393.79998779296875 342.5 396.0 Q 347.29998779296875 396.79998779296875 348.0 393.5 L 348.5 391.0 Q 365.1000061035156 393.1000061035156 373.5 387.0 Z" /><path desc="l 0 p 8" fill="rgb(2,2,2)" stroke="rgb(2,2,2)" stroke-width="1" opacity="1.0" d="M 359.5 394.0 L 363.0 395.5 Q 363.79998779296875 400.29998779296875 361.5 402.0 L 358.0 400.5 L 357.0 396.5 L 359.5 394.0 Z" /><path desc="l 0 p 9" fill="rgb(2,2,2)" stroke="rgb(2,2,2)" stroke-width="1" opacity="1.0" d="M 373.5 394.0 L 378.0 394.5 L 379.0 400.5 Q 378.5 403.5 374.5 403.0 L 371.0 401.5 L 371.5 395.0 L 373.5 394.0 Z" /><path desc="l 1 p 39" fill="rgb(253,253,253)" stroke="rgb(253,253,253)" stroke-width="1" opacity="1.0" d="M 394.5 403.0 Q 397.8999938964844 406.6000061035156 397.0 414.5 L 394.5 418.0 L 392.0 416.5 Q 394.79998779296875 415.79998779296875 394.0 411.5 L 394.5 403.0 Z" /><path desc="l 1 p 40" fill="rgb(253,253,253)" stroke="rgb(253,253,253)" stroke-width="1" opacity="1.0" d="M 401.5 560.0 Q 413.8999938964844 558.0999755859375 419.0 563.5 L 425.5 568.0 Q 430.5 567.0 431.5 570.0 L 442.5 572.0 Q 447.6000061035156 571.4000244140625 449.0 574.5 L 462.0 576.5 Q 465.6000061035156 580.4000244140625 474.5 579.0 L 483.0 581.5 Q 486.79998779296875 583.7999877929688 493.5 583.0 L 504.5 584.0 Q 511.0 588.0 523.5 586.0 L 560.5 587.0 L 564.5 586.0 L 571.5 584.0 L 588.5 583.0 L 597.5 587.0 Q 602.5 586.5 603.0 590.5 L 602.5 597.0 L 596.0 598.5 L 594.5 601.0 L 582.5 603.0 Q 580.2999877929688 606.7999877929688 573.5 606.0 L 568.0 606.5 L 562.5 608.0 L 557.5 609.0 L 548.5 609.0 L 511.5 609.0 L 505.5 607.0 L 497.5 606.0 L 484.0 604.5 L 483.5 603.0 L 472.5 601.0 L 467.0 599.5 L 466.5 598.0 Q 458.79998779296875 599.2000122070312 455.5 596.0 L 448.5 594.0 L 443.5 593.0 Q 441.70001220703125 589.7999877929688 436.5 590.0 L 431.5 589.0 L 425.5 586.0 L 402.0 576.5 L 401.5 575.0 L 394.0 571.5 L 393.5 570.0 L 391.0 568.5 Q 398.1000061035156 566.2000122070312 401.5 560.0 Z" /><path desc="l 1 p 41" fill="rgb(253,253,253)" stroke="rgb(253,253,253)" stroke-width="1" opacity="1.0" d="M 382.5 572.0 L 397.0 581.5 L 397.5 583.0 Q 403.0 582.0 404.0 585.5 L 409.5 587.0 L 413.0 588.5 L 418.0 590.5 L 423.0 592.5 L 428.5 594.0 Q 433.29998779296875 593.2999877929688 435.0 595.5 Q 435.79998779296875 598.7999877929688 440.5 598.0 Q 445.79998779296875 597.2000122070312 447.5 600.0 L 455.0 603.5 L 461.5 617.0 L 463.0 617.5 L 464.0 622.5 L 467.0 626.5 L 475.5 641.0 L 478.0 642.5 L 484.5 652.0 L 487.0 652.5 L 488.5 656.0 L 491.5 660.0 L 495.0 662.5 L 495.5 664.0 L 498.0 665.5 L 499.5 668.0 L 501.0 668.5 L 503.5 672.0 L 506.0 673.5 L 507.5 677.0 L 512.5 679.0 Q 515.0 678.0 514.0 673.5 L 508.0 669.5 L 499.5 660.0 L 497.0 658.5 L 492.5 652.0 L 491.0 651.5 L 477.0 632.5 L 471.5 623.0 L 466.5 613.0 L 465.0 612.5 Q 462.3999938964844 611.0999755859375 463.0 606.5 L 466.5 605.0 L 477.5 607.0 Q 479.5 611.0 487.5 609.0 L 493.5 609.0 Q 497.79998779296875 608.2999877929688 498.5 611.0 Q 501.3999938964844 614.5999755859375 509.5 613.0 L 526.5 614.0 L 554.5 614.0 Q 556.0 611.5 561.5 613.0 Q 567.7999877929688 613.7999877929688 570.5 611.0 Q 573.2000122070312 608.2000122070312 579.5 609.0 Q 585.5 610.5 587.0 607.5 L 587.5 606.0 L 592.0 606.5 L 590.5 610.0 L 589.0 610.5 L 577.5 625.0 Q 573.7999877929688 624.2999877929688 573.0 626.5 L 571.5 629.0 L 569.0 630.5 L 567.5 633.0 L 565.0 633.5 L 563.5 636.0 L 560.0 638.5 L 559.5 640.0 L 554.0 642.5 L 544.0 646.5 Q 542.2999877929688 649.7999877929688 535.5 648.0 L 529.5 645.0 L 523.0 642.5 L 522.5 641.0 Q 518.5 641.5 518.0 638.5 L 516.5 636.0 L 514.0 634.5 L 513.5 633.0 L 511.0 631.5 L 509.5 628.0 Q 504.79998779296875 627.2999877929688 504.0 630.5 L 515.5 644.0 L 520.0 646.5 L 529.5 650.0 Q 530.2999877929688 652.7999877929688 534.5 652.0 L 545.5 652.0 L 560.5 645.0 L 569.0 638.5 L 570.5 636.0 L 572.0 635.5 L 574.5 632.0 L 576.0 631.5 L 580.5 625.0 L 584.0 623.5 L 585.5 621.0 L 588.0 619.5 L 588.5 618.0 L 592.0 616.5 L 594.5 613.0 L 597.0 611.5 L 598.5 609.0 L 601.0 607.5 L 605.5 599.0 L 608.5 606.0 L 610.5 612.0 L 611.0 617.5 L 609.5 623.0 L 609.0 628.5 L 607.0 643.5 Q 609.5 645.0 608.0 650.5 L 605.0 652.5 L 603.0 666.5 L 601.0 674.5 L 599.0 684.5 Q 599.7000122070312 690.2000122070312 597.0 692.5 L 596.0 700.5 Q 597.0 706.5 594.0 708.5 Q 591.2000122070312 711.2000122070312 592.0 717.5 Q 593.0 724.5 590.0 727.5 L 588.0 738.5 L 587.0 747.5 Q 584.4000244140625 748.9000244140625 585.0 753.5 L 584.0 757.5 L 583.0 767.5 L 580.0 775.5 Q 580.9000244140625 781.9000244140625 578.5 785.0 Q 576.0 788.5 577.0 795.5 L 574.5 805.0 Q 572.0999755859375 807.0999755859375 573.0 812.5 L 571.0 820.5 Q 568.0 821.5 569.0 826.5 L 568.0 835.5 L 567.0 839.5 L 565.0 846.5 L 563.0 858.5 Q 559.2999877929688 860.2999877929688 561.0 867.5 L 559.0 875.5 L 557.0 880.5 Q 557.7999877929688 883.7999877929688 562.5 883.0 Q 566.2999877929688 881.7999877929688 565.0 875.5 Q 564.0999755859375 870.0999755859375 566.5 868.0 Q 569.7000122070312 865.7000122070312 569.0 859.5 L 573.0 840.5 Q 572.0999755859375 835.0999755859375 574.5 833.0 L 577.0 823.5 Q 575.2999877929688 817.2999877929688 578.0 815.5 L 580.0 810.5 Q 578.7999877929688 805.7999877929688 581.0 804.5 L 582.0 801.5 L 582.0 795.5 Q 584.7999877929688 793.2999877929688 584.5 788.0 L 587.0 777.5 L 588.5 767.0 L 589.0 761.5 L 590.0 757.5 L 592.5 747.0 L 596.0 733.5 L 597.0 721.5 Q 600.0 718.5 599.0 711.5 L 603.0 694.5 L 605.0 686.5 L 606.0 680.5 L 610.0 656.5 Q 612.5 655.0 611.0 649.5 Q 610.2999877929688 644.7999877929688 612.5 643.0 Q 614.7999877929688 641.2999877929688 614.0 636.5 L 612.0 629.5 L 617.5 628.0 Q 616.7999877929688 634.7000122070312 620.0 637.5 L 622.0 648.5 L 624.0 656.5 L 625.0 660.5 L 626.0 667.5 Q 624.5 673.0 627.0 674.5 L 628.0 677.5 L 629.5 683.0 L 630.0 688.5 Q 628.7999877929688 693.2999877929688 631.0 694.5 L 633.5 704.0 L 635.0 704.5 Q 633.7000122070312 713.7999877929688 637.0 718.5 L 639.0 726.5 L 640.0 731.5 L 643.0 743.5 L 644.0 748.5 L 647.0 759.5 L 648.5 765.0 L 651.0 771.5 Q 649.5 777.0 652.0 778.5 L 654.0 783.5 L 656.0 800.5 Q 660.0 802.5 658.0 810.5 Q 657.2999877929688 816.2000122070312 660.0 818.5 Q 662.7000122070312 821.7999877929688 662.0 828.5 L 664.0 842.5 L 666.0 854.5 L 666.5 860.0 L 668.0 865.5 L 669.0 869.5 L 670.0 873.5 L 670.0 882.5 L 672.0 895.5 L 675.5 924.0 L 677.0 924.5 L 678.0 942.5 L 679.0 954.5 Q 683.0 958.0 681.0 967.5 L 682.0 983.5 L 684.0 999.5 L 473.5 1000.0 L 471.5 989.0 L 471.0 976.5 Q 472.5 967.0 470.0 961.5 L 469.0 950.5 L 468.5 943.0 L 467.0 934.5 L 465.0 919.5 Q 466.5 914.0 464.0 912.5 L 459.0 877.5 L 457.0 863.5 L 456.5 858.0 L 454.5 852.0 L 453.0 846.5 L 452.0 839.5 Q 453.0 830.0 448.5 826.0 L 444.0 803.5 L 442.5 796.0 L 440.0 787.5 Q 441.0 782.5 438.0 781.5 L 435.0 765.5 Q 432.29998779296875 763.2999877929688 432.5 758.0 L 431.0 750.5 L 429.0 746.5 Q 429.6000061035156 741.9000244140625 427.0 740.5 L 423.5 728.0 L 407.5 684.0 L 403.5 673.0 Q 401.29998779296875 672.2999877929688 402.0 668.5 L 398.0 660.5 L 396.5 655.0 Q 393.29998779296875 654.2999877929688 394.0 649.5 L 388.5 636.0 L 387.0 635.5 L 385.0 627.5 L 382.5 622.0 L 378.5 612.0 L 372.5 595.0 L 371.0 594.5 L 369.0 577.5 Q 369.79998779296875 574.2999877929688 374.5 575.0 L 378.5 574.0 L 382.5 572.0 Z" /><path desc="l 0 p 10" fill="rgb(2,2,2)" stroke="rgb(2,2,2)" stroke-width="1" opacity="1.0" d="M 405.5 590.0 L 408.0 590.5 L 413.0 600.5 Q 412.1000061035156 607.9000244140625 416.0 610.5 L 417.0 619.5 Q 416.29998779296875 623.2999877929688 418.5 624.0 L 420.0 627.5 L 421.0 631.5 Q 419.29998779296875 638.2999877929688 422.5 640.0 Q 424.79998779296875 640.7999877929688 424.0 644.5 L 425.0 648.5 L 426.0 656.5 Q 428.79998779296875 658.2000122070312 428.0 663.5 L 429.5 674.0 L 431.0 674.5 L 441.0 718.5 Q 444.29998779296875 720.2000122070312 443.5 726.0 L 445.0 734.5 Q 448.79998779296875 736.7999877929688 448.0 743.5 Q 446.79998779296875 748.7999877929688 449.5 750.0 L 451.0 753.5 L 452.0 758.5 L 454.0 764.5 L 455.0 772.5 Q 455.29998779296875 778.7000122070312 459.0 781.5 L 466.0 806.5 L 470.0 820.5 L 473.0 828.5 L 476.0 837.5 L 480.0 847.5 L 482.0 852.5 Q 485.0 854.5 484.0 860.5 L 487.0 866.5 L 495.5 888.0 L 499.5 898.0 L 504.5 912.0 L 509.0 922.5 L 518.0 944.5 L 524.5 957.0 L 530.5 971.0 L 534.0 973.5 Q 533.4000244140625 978.5999755859375 536.5 980.0 Q 539.5 981.5 538.0 987.5 L 534.5 989.0 Q 529.4000244140625 984.5999755859375 527.5 977.0 L 526.0 976.5 L 524.5 971.0 Q 521.5 970.5 522.0 966.5 L 520.5 962.0 L 519.0 961.5 L 514.5 949.0 L 508.5 935.0 L 507.0 934.5 L 501.0 918.5 L 494.5 903.0 Q 494.5 895.5 490.0 892.5 L 486.5 883.0 L 482.0 872.5 L 481.0 867.5 L 478.5 862.0 L 472.5 846.0 L 471.0 842.5 L 470.0 837.5 L 468.5 834.0 L 467.0 830.5 L 466.0 825.5 L 462.0 812.5 L 459.0 800.5 Q 455.6000061035156 798.4000244140625 455.5 793.0 L 454.0 784.5 Q 451.3999938964844 783.0999755859375 452.0 778.5 L 450.5 772.0 Q 447.0 769.5 447.5 763.0 L 447.0 758.5 L 445.5 755.0 L 441.0 742.5 L 439.0 732.5 Q 439.79998779296875 727.7999877929688 437.5 726.0 Q 435.29998779296875 724.2999877929688 436.0 719.5 Q 437.0 713.5 434.0 711.5 L 432.0 705.5 L 431.0 699.5 L 428.0 689.5 L 428.0 683.5 L 426.5 680.0 L 425.0 677.5 L 424.0 672.5 Q 425.29998779296875 665.2999877929688 421.5 663.0 L 420.0 652.5 Q 421.5 647.0 419.0 645.5 L 416.0 637.5 Q 417.5 631.5 414.5 630.0 Q 412.1000061035156 627.9000244140625 413.0 622.5 Q 413.79998779296875 616.7999877929688 411.5 614.0 Q 407.79998779296875 612.7999877929688 409.0 606.5 L 405.0 597.5 L 402.0 591.5 L 405.5 590.0 Z" /><path desc="l 1 p 42" fill="rgb(253,253,253)" stroke="rgb(253,253,253)" stroke-width="1" opacity="1.0" d="M 319.5 769.0 L 322.0 769.5 L 321.5 779.0 Q 316.79998779296875 776.7999877929688 319.5 769.0 Z" /><path desc="l 1 p 43" fill="rgb(253,253,253)" stroke="rgb(253,253,253)" stroke-width="1" opacity="1.0" d="M 323.5 780.0 L 326.0 780.5 L 325.5 787.0 L 323.0 785.5 L 323.5 780.0 Z" /><path desc="l 1 p 44" fill="rgb(253,253,253)" stroke="rgb(253,253,253)" stroke-width="1" opacity="1.0" d="M 761.5 786.0 Q 764.2999877929688 787.2999877929688 763.0 792.5 L 761.5 793.0 L 761.5 786.0 Z" /><path desc="l 1 p 45" fill="rgb(253,253,253)" stroke="rgb(253,253,253)" stroke-width="1" opacity="1.0" d="M 328.5 790.0 L 329.0 792.5 L 328.0 792.5 L 328.5 790.0 Z" /><path desc="l 1 p 46" fill="rgb(253,253,253)" stroke="rgb(253,253,253)" stroke-width="1" opacity="1.0" d="M 332.5 824.0 L 333.0 826.5 L 332.0 826.5 L 332.5 824.0 Z" /><path desc="l 1 p 47" fill="rgb(253,253,253)" stroke="rgb(253,253,253)" stroke-width="1" opacity="1.0" d="M 336.5 832.0 L 337.0 836.5 L 336.0 836.5 L 336.5 832.0 Z" /><path desc="l 1 p 48" fill="rgb(253,253,253)" stroke="rgb(253,253,253)" stroke-width="1" opacity="1.0" d="M 261.5 844.0 L 264.0 844.5 L 264.5 852.0 L 268.0 854.5 Q 267.29998779296875 858.7999877929688 270.0 859.5 Q 273.0 861.0 272.5 866.0 L 274.0 866.5 Q 276.79998779296875 868.2000122070312 276.0 873.5 Q 274.5 876.5 273.0 873.5 L 270.5 868.0 L 267.5 860.0 L 265.0 858.5 Q 266.0 853.5 263.0 852.5 Q 259.1000061035156 850.5999755859375 261.5 844.0 Z" /><path desc="l 1 p 49" fill="rgb(253,253,253)" stroke="rgb(253,253,253)" stroke-width="1" opacity="1.0" d="M 277.5 874.0 L 280.0 881.5 L 277.5 882.0 L 276.0 875.5 L 277.5 874.0 Z" /><path desc="l 1 p 50" fill="rgb(253,253,253)" stroke="rgb(253,253,253)" stroke-width="1" opacity="1.0" d="M 320.5 874.0 L 322.0 874.5 Q 321.5 880.0 324.5 882.0 L 332.5 898.0 L 334.0 898.5 Q 332.79998779296875 904.2999877929688 336.0 905.5 L 338.0 910.5 L 339.5 916.0 L 341.0 916.5 L 343.5 923.0 Q 346.70001220703125 925.2999877929688 346.0 931.5 L 344.0 930.5 L 341.5 924.0 L 338.5 917.0 L 336.0 915.5 L 332.5 908.0 L 331.0 905.5 L 329.5 899.0 L 327.0 897.5 Q 328.29998779296875 892.2999877929688 325.5 891.0 L 323.0 890.5 L 321.0 883.5 Q 317.5 882.0 319.0 875.5 L 320.5 874.0 Z" /><path desc="l 1 p 51" fill="rgb(253,253,253)" stroke="rgb(253,253,253)" stroke-width="1" opacity="1.0" d="M 328.5 875.0 L 329.5 877.0 L 328.0 876.5 L 328.5 875.0 Z" /><path desc="l 1 p 52" fill="rgb(253,253,253)" stroke="rgb(253,253,253)" stroke-width="1" opacity="1.0" d="M 281.5 883.0 L 283.0 883.5 Q 284.0 888.0 281.5 889.0 L 280.0 884.5 L 281.5 883.0 Z" /><path desc="l 1 p 53" fill="rgb(253,253,253)" stroke="rgb(253,253,253)" stroke-width="1" opacity="1.0" d="M 273.5 887.0 L 275.0 887.5 L 273.5 890.0 L 273.5 887.0 Z" /><path desc="l 1 p 54" fill="rgb(253,253,253)" stroke="rgb(253,253,253)" stroke-width="1" opacity="1.0" d="M 281.5 917.0 L 284.5 924.0 L 287.0 924.5 L 288.5 932.0 L 291.0 933.5 L 290.5 938.0 L 288.0 936.5 L 287.5 933.0 L 285.0 931.5 L 283.5 925.0 L 281.0 924.5 L 281.5 917.0 Z" /><path desc="l 1 p 55" fill="rgb(253,253,253)" stroke="rgb(253,253,253)" stroke-width="1" opacity="1.0" d="M 347.5 933.0 L 349.0 933.5 Q 348.3999938964844 938.5999755859375 351.5 940.0 L 353.0 940.5 L 354.0 946.5 L 352.5 949.0 L 349.5 941.0 L 348.0 940.5 L 346.0 934.5 L 347.5 933.0 Z" /><path desc="l 1 p 56" fill="rgb(253,253,253)" stroke="rgb(253,253,253)" stroke-width="1" opacity="1.0" d="M 355.5 950.0 L 356.5 952.0 L 355.5 950.0 Z" /><path desc="l 1 p 57" fill="rgb(253,253,253)" stroke="rgb(253,253,253)" stroke-width="1" opacity="1.0" d="M 769.5 978.0 L 770.0 981.5 L 769.0 981.5 L 769.5 978.0 Z" /></svg>